<svg width="298" height="40" viewBox="0 0 298 40" fill="none" xmlns="http://www.w3.org/2000/svg">
<g filter="url(#filter0_d_7_20)">
<path d="M13.8359 31.4102C12.1042 31.4102 10.4375 31.1562 8.83594 30.6484C7.23438 30.1406 5.70443 29.3594 4.24609 28.3047V22.2305H7.23438L7.87891 26.7031C8.72526 27.224 9.64323 27.6276 10.6328 27.9141C11.6224 28.2005 12.6901 28.3438 13.8359 28.3438C15.138 28.3438 16.2383 28.1484 17.1367 27.7578C18.0482 27.3542 18.7448 26.8008 19.2266 26.0977C19.7083 25.3945 19.9492 24.5742 19.9492 23.6367C19.9492 22.7643 19.7409 21.9961 19.3242 21.332C18.9076 20.668 18.2174 20.0885 17.2539 19.5938C16.3034 19.0859 15.0013 18.6432 13.3477 18.2656C11.3945 17.8099 9.74089 17.2044 8.38672 16.4492C7.04557 15.681 6.02344 14.7565 5.32031 13.6758C4.63021 12.582 4.28516 11.332 4.28516 9.92578C4.28516 8.44141 4.67578 7.11328 5.45703 5.94141C6.2513 4.76953 7.35156 3.84505 8.75781 3.16797C10.1641 2.49089 11.8047 2.15234 13.6797 2.15234C15.6719 2.15234 17.4297 2.45833 18.9531 3.07031C20.4896 3.66927 21.7526 4.39844 22.7422 5.25781V10.9414H19.7539L19.1094 6.87891C18.5234 6.41016 17.7943 6.01953 16.9219 5.70703C16.0495 5.39453 14.9688 5.23828 13.6797 5.23828C12.5859 5.23828 11.6224 5.43359 10.7891 5.82422C9.95573 6.20182 9.30469 6.73568 8.83594 7.42578C8.36719 8.11589 8.13281 8.92969 8.13281 9.86719C8.13281 10.6875 8.34115 11.4036 8.75781 12.0156C9.1875 12.6276 9.8776 13.168 10.8281 13.6367C11.7917 14.0924 13.0742 14.5221 14.6758 14.9258C17.6706 15.668 19.9362 16.7682 21.4727 18.2266C23.0221 19.6719 23.7969 21.4622 23.7969 23.5977C23.7969 25.1211 23.3867 26.4753 22.5664 27.6602C21.7461 28.832 20.5872 29.75 19.0898 30.4141C17.6055 31.0781 15.8542 31.4102 13.8359 31.4102ZM30.6633 31V28.5391L33.8469 27.9922V12.8945L30.6633 12.3477V9.86719H37.6945V27.9922L40.8781 28.5391V31H30.6633ZM33.6516 4.65234V0.53125H37.6945V4.65234H33.6516ZM55.8891 31.4102C54.4698 31.4102 53.1417 31.2669 51.9047 30.9805C50.6677 30.694 49.3526 30.2513 47.9594 29.6523L47.9203 24.6328H50.8305L51.5531 27.6602C52.2823 27.9596 52.9854 28.181 53.6625 28.3242C54.3526 28.4544 55.0948 28.5195 55.8891 28.5195C57.4516 28.5195 58.5714 28.2201 59.2484 27.6211C59.9255 27.0221 60.2641 26.2799 60.2641 25.3945C60.2641 24.5612 59.919 23.8581 59.2289 23.2852C58.5518 22.6992 57.3148 22.2044 55.518 21.8008C52.9659 21.2148 51.0844 20.4336 49.8734 19.457C48.6755 18.4674 48.0766 17.1523 48.0766 15.5117C48.0766 14.3659 48.4086 13.3438 49.0727 12.4453C49.7367 11.5339 50.6612 10.8112 51.8461 10.2773C53.031 9.74349 54.4112 9.47656 55.9867 9.47656C57.5883 9.47656 58.9555 9.65885 60.0883 10.0234C61.2341 10.388 62.2302 10.8763 63.0766 11.4883L63.2719 16.3125H60.3812L59.7562 13.5C59.3005 13.1615 58.7602 12.901 58.1352 12.7188C57.5102 12.5365 56.794 12.4453 55.9867 12.4453C54.7888 12.4453 53.8122 12.7253 53.057 13.2852C52.3148 13.8451 51.9437 14.5482 51.9437 15.3945C51.9437 15.8893 52.0479 16.319 52.2562 16.6836C52.4776 17.0482 52.8943 17.3802 53.5062 17.6797C54.1182 17.9661 55.0167 18.2526 56.2016 18.5391C59.1443 19.2292 61.1951 20.1081 62.3539 21.1758C63.5258 22.2435 64.1117 23.5586 64.1117 25.1211C64.1117 26.9049 63.4477 28.4023 62.1195 29.6133C60.8044 30.8112 58.7276 31.4102 55.8891 31.4102ZM78.5563 31.332C76.9938 31.332 75.7503 30.8763 74.8258 29.9648C73.9143 29.0404 73.4586 27.569 73.4586 25.5508V12.7188H70.1188V9.86719H73.4586V4.76953H77.3063V9.86719H81.8961V12.7188H77.3063V25.5508C77.3063 26.5664 77.5081 27.3151 77.9117 27.7969C78.3154 28.2786 78.8557 28.5195 79.5328 28.5195C79.9885 28.5195 80.4964 28.4805 81.0563 28.4023C81.6161 28.3112 82.0523 28.2331 82.3648 28.168L82.8922 30.6875C82.3323 30.8568 81.6422 31.0065 80.8219 31.1367C80.0146 31.2669 79.2594 31.332 78.5563 31.332ZM98.3914 31.4102C96.4383 31.4102 94.7391 30.9674 93.2937 30.082C91.8484 29.1836 90.7286 27.9401 89.9344 26.3516C89.1531 24.763 88.7625 22.9271 88.7625 20.8438V19.9844C88.7625 17.9792 89.1727 16.1888 89.993 14.6133C90.8263 13.0247 91.9266 11.7747 93.2937 10.8633C94.674 9.9388 96.1779 9.47656 97.8055 9.47656C99.7065 9.47656 101.295 9.86719 102.571 10.6484C103.86 11.4297 104.83 12.5299 105.481 13.9492C106.132 15.3555 106.458 17.0156 106.458 18.9297V21.332H92.7469L92.6883 21.4297C92.7143 22.7839 92.9487 23.9883 93.3914 25.043C93.8471 26.0846 94.4982 26.9049 95.3445 27.5039C96.1909 28.1029 97.2065 28.4023 98.3914 28.4023C99.6935 28.4023 100.833 28.2201 101.809 27.8555C102.799 27.4779 103.652 26.9635 104.368 26.3125L105.872 28.8125C105.117 29.5417 104.114 30.1602 102.864 30.668C101.627 31.1628 100.136 31.4102 98.3914 31.4102ZM92.8641 18.3242H102.61V17.8164C102.61 16.8008 102.428 15.8958 102.063 15.1016C101.712 14.2943 101.178 13.6628 100.462 13.207C99.7586 12.7383 98.8732 12.5039 97.8055 12.5039C96.9461 12.5039 96.1648 12.7578 95.4617 13.2656C94.7586 13.7604 94.1792 14.4375 93.7234 15.2969C93.2677 16.1562 92.9682 17.1328 92.825 18.2266L92.8641 18.3242ZM113.266 31V28.5391L116.449 27.9922V12.8945L113.266 12.3477V9.86719H119.906L120.16 12.6211C120.837 11.6185 121.71 10.8438 122.777 10.2969C123.845 9.75 125.082 9.47656 126.488 9.47656C127.895 9.47656 129.099 9.80208 130.102 10.4531C131.117 11.1042 131.879 12.0807 132.387 13.3828C133.051 12.1849 133.93 11.2344 135.023 10.5312C136.117 9.82812 137.393 9.47656 138.852 9.47656C141.013 9.47656 142.719 10.2188 143.969 11.7031C145.219 13.1745 145.844 15.3945 145.844 18.3633V27.9922L149.027 28.5391V31H138.793V28.5391L141.977 27.9922V18.3242C141.977 16.2409 141.618 14.7695 140.902 13.9102C140.186 13.0378 139.125 12.6016 137.719 12.6016C136.378 12.6016 135.297 13.0768 134.477 14.0273C133.669 14.9648 133.201 16.1497 133.07 17.582V27.9922L136.254 28.5391V31H126.039V28.5391L129.223 27.9922V18.3242C129.223 16.3451 128.852 14.8997 128.109 13.9883C127.38 13.0638 126.319 12.6016 124.926 12.6016C123.754 12.6016 122.79 12.8424 122.035 13.3242C121.28 13.806 120.701 14.4831 120.297 15.3555V27.9922L123.48 28.5391V31H113.266ZM169.596 31V28.5391L172.78 27.9922V5.58984L169.596 5.04297V2.5625H172.78H182.663C184.694 2.5625 186.426 2.92057 187.858 3.63672C189.29 4.33984 190.384 5.32943 191.139 6.60547C191.894 7.88151 192.272 9.3724 192.272 11.0781C192.272 12.7969 191.894 14.2943 191.139 15.5703C190.384 16.8464 189.29 17.8359 187.858 18.5391C186.426 19.2422 184.694 19.5938 182.663 19.5938H176.627V27.9922L179.811 28.5391V31H169.596ZM176.627 16.5859H182.663C184.59 16.5859 186.028 16.0716 186.979 15.043C187.942 14.0013 188.424 12.6927 188.424 11.1172C188.424 9.54167 187.942 8.22656 186.979 7.17188C186.028 6.11719 184.59 5.58984 182.663 5.58984H176.627V16.5859ZM205.212 31.4102C203.012 31.4102 201.339 30.8763 200.193 29.8086C199.047 28.7279 198.474 27.2109 198.474 25.2578C198.474 23.9167 198.839 22.7513 199.568 21.7617C200.31 20.7591 201.378 19.9844 202.771 19.4375C204.164 18.8776 205.831 18.5977 207.771 18.5977H211.541V16.5273C211.541 15.2513 211.15 14.2617 210.369 13.5586C209.601 12.8555 208.513 12.5039 207.107 12.5039C206.222 12.5039 205.453 12.6146 204.802 12.8359C204.151 13.0443 203.559 13.3372 203.025 13.7148L202.615 16.6641H199.646V11.8203C200.597 11.0521 201.703 10.4727 202.966 10.082C204.229 9.67839 205.629 9.47656 207.166 9.47656C209.731 9.47656 211.742 10.0885 213.201 11.3125C214.659 12.5365 215.388 14.2878 215.388 16.5664V26.7422C215.388 27.0156 215.388 27.2826 215.388 27.543C215.401 27.8034 215.421 28.0638 215.447 28.3242L217.498 28.5391V31H211.97C211.853 30.4271 211.762 29.9128 211.697 29.457C211.632 29.0013 211.586 28.5456 211.56 28.0898C210.818 29.0404 209.887 29.8346 208.767 30.4727C207.66 31.0977 206.476 31.4102 205.212 31.4102ZM205.779 28.1875C207.055 28.1875 208.22 27.8815 209.275 27.2695C210.33 26.6576 211.085 25.9219 211.541 25.0625V21.2344H207.634C205.864 21.2344 204.535 21.6576 203.65 22.5039C202.765 23.3503 202.322 24.2943 202.322 25.3359C202.322 26.2604 202.608 26.9701 203.181 27.4648C203.754 27.9466 204.62 28.1875 205.779 28.1875ZM224.091 31V28.5391L227.274 27.9922V3.55859L224.091 3.01172V0.53125H231.122V27.9922L234.305 28.5391V31H224.091ZM237.665 31V28.5391L239.813 28.2852L239.755 28.207L233.641 20.3164L235.634 17.25L244.169 28.0703L247.216 28.5391V31H237.665ZM230.848 24.8867L229.423 21.8594L238.602 12.7188L238.7 12.6016L236.434 12.3477V9.86719H245.536V12.3477L242.821 12.8555L230.848 24.8867ZM259.688 31.4102C257.487 31.4102 255.814 30.8763 254.668 29.8086C253.522 28.7279 252.949 27.2109 252.949 25.2578C252.949 23.9167 253.314 22.7513 254.043 21.7617C254.785 20.7591 255.853 19.9844 257.246 19.4375C258.639 18.8776 260.306 18.5977 262.246 18.5977H266.016V16.5273C266.016 15.2513 265.625 14.2617 264.844 13.5586C264.076 12.8555 262.988 12.5039 261.582 12.5039C260.697 12.5039 259.928 12.6146 259.277 12.8359C258.626 13.0443 258.034 13.3372 257.5 13.7148L257.09 16.6641H254.121V11.8203C255.072 11.0521 256.178 10.4727 257.441 10.082C258.704 9.67839 260.104 9.47656 261.641 9.47656C264.206 9.47656 266.217 10.0885 267.676 11.3125C269.134 12.5365 269.863 14.2878 269.863 16.5664V26.7422C269.863 27.0156 269.863 27.2826 269.863 27.543C269.876 27.8034 269.896 28.0638 269.922 28.3242L271.973 28.5391V31H266.445C266.328 30.4271 266.237 29.9128 266.172 29.457C266.107 29.0013 266.061 28.5456 266.035 28.0898C265.293 29.0404 264.362 29.8346 263.242 30.4727C262.135 31.0977 260.951 31.4102 259.688 31.4102ZM260.254 28.1875C261.53 28.1875 262.695 27.8815 263.75 27.2695C264.805 26.6576 265.56 25.9219 266.016 25.0625V21.2344H262.109C260.339 21.2344 259.01 21.6576 258.125 22.5039C257.24 23.3503 256.797 24.2943 256.797 25.3359C256.797 26.2604 257.083 26.9701 257.656 27.4648C258.229 27.9466 259.095 28.1875 260.254 28.1875ZM278.722 31V28.5391L281.905 27.9922V12.8945L278.722 12.3477V9.86719H285.343L285.675 12.5625L285.714 12.9336C286.313 11.8529 287.049 11.0065 287.921 10.3945C288.806 9.78255 289.816 9.47656 290.948 9.47656C291.352 9.47656 291.762 9.51562 292.179 9.59375C292.609 9.65885 292.915 9.72396 293.097 9.78906L292.589 13.3633L289.913 13.207C288.898 13.1419 288.045 13.3763 287.355 13.9102C286.665 14.431 286.131 15.1341 285.753 16.0195V27.9922L288.937 28.5391V31H278.722Z" fill="white"/>
</g>
<defs>
<filter id="filter0_d_7_20" x="0.246094" y="0.53125" width="296.851" height="38.8789" filterUnits="userSpaceOnUse" color-interpolation-filters="sRGB">
<feFlood flood-opacity="0" result="BackgroundImageFix"/>
<feColorMatrix in="SourceAlpha" type="matrix" values="0 0 0 0 0 0 0 0 0 0 0 0 0 0 0 0 0 0 127 0" result="hardAlpha"/>
<feOffset dy="4"/>
<feGaussianBlur stdDeviation="2"/>
<feComposite in2="hardAlpha" operator="out"/>
<feColorMatrix type="matrix" values="0 0 0 0 0 0 0 0 0 0 0 0 0 0 0 0 0 0 0.25 0"/>
<feBlend mode="normal" in2="BackgroundImageFix" result="effect1_dropShadow_7_20"/>
<feBlend mode="normal" in="SourceGraphic" in2="effect1_dropShadow_7_20" result="shape"/>
</filter>
</defs>
</svg>
